<svg width="759" height="1678" viewBox="0 0 759 1678" fill="none" xmlns="http://www.w3.org/2000/svg">
<g clip-path="url(#clip0)">
<rect width="759" height="1678" fill="white"/>
<path d="M208 435C208 476.697 189.697 615.5 148 615.5C106.303 615.5 36 529.697 36 488C36 446.303 44.8025 348 86.5 348C128.197 348 208 393.303 208 435Z" fill="#FFE6C9" fill-opacity="0.58"/>
<path d="M208 1062C208 1103.7 189.697 1242.5 148 1242.5C106.303 1242.5 36 1156.7 36 1115C36 1073.3 44.8025 975 86.5 975C128.197 975 208 1020.3 208 1062Z" fill="#FFE6C9" fill-opacity="0.58"/>
<path d="M208 1689C208 1730.7 189.697 1869.5 148 1869.5C106.303 1869.5 36 1783.7 36 1742C36 1700.3 44.8025 1602 86.5 1602C128.197 1602 208 1647.3 208 1689Z" fill="#FFE6C9" fill-opacity="0.58"/>
<path d="M571 14C571 55.6975 515.697 136.5 474 136.5C432.303 136.5 297 99.6975 297 58C297 16.3025 383.803 -71 425.5 -71C467.197 -71 571 -27.6975 571 14Z" fill="#FFE6C9" fill-opacity="0.58"/>
<path d="M571 641C571 682.697 515.697 763.5 474 763.5C432.303 763.5 297 726.697 297 685C297 643.303 383.803 556 425.5 556C467.197 556 571 599.303 571 641Z" fill="#FFE6C9" fill-opacity="0.58"/>
<path d="M571 1268C571 1309.7 515.697 1390.5 474 1390.5C432.303 1390.5 297 1353.7 297 1312C297 1270.3 383.803 1183 425.5 1183C467.197 1183 571 1226.3 571 1268Z" fill="#FFE6C9" fill-opacity="0.58"/>
<path d="M224 171C224 212.697 202.697 285.5 161 285.5C119.303 285.5 11 200.697 11 159C11 117.303 70.8025 78 112.5 78C154.197 78 224 129.303 224 171Z" fill="#FFE6C9" fill-opacity="0.58"/>
<path d="M224 798C224 839.697 202.697 912.5 161 912.5C119.303 912.5 11 827.697 11 786C11 744.303 70.8025 705 112.5 705C154.197 705 224 756.303 224 798Z" fill="#FFE6C9" fill-opacity="0.58"/>
<path d="M224 1425C224 1466.7 202.697 1539.5 161 1539.5C119.303 1539.5 11 1454.7 11 1413C11 1371.3 70.8025 1332 112.5 1332C154.197 1332 224 1383.3 224 1425Z" fill="#FFE6C9" fill-opacity="0.58"/>
<path d="M802 130.5C802 172.197 788.697 226.5 747 226.5C705.303 226.5 637.5 151.697 637.5 110C637.5 68.3025 690.803 36 732.5 36C774.197 36 802 88.8025 802 130.5Z" fill="#FFE6C9" fill-opacity="0.58"/>
<path d="M802 757.5C802 799.197 788.697 853.5 747 853.5C705.303 853.5 637.5 778.697 637.5 737C637.5 695.303 690.803 663 732.5 663C774.197 663 802 715.803 802 757.5Z" fill="#FFE6C9" fill-opacity="0.58"/>
<path d="M802 1384.5C802 1426.2 788.697 1480.5 747 1480.5C705.303 1480.5 637.5 1405.7 637.5 1364C637.5 1322.3 690.803 1290 732.5 1290C774.197 1290 802 1342.8 802 1384.5Z" fill="#FFE6C9" fill-opacity="0.58"/>
<path d="M729 471C729 512.697 665.197 565.5 623.5 565.5C581.803 565.5 541 527.197 541 485.5C541 443.803 630.303 364 672 364C713.697 364 729 429.303 729 471Z" fill="#FFE6C9" fill-opacity="0.58"/>
<path d="M729 1098C729 1139.7 665.197 1192.5 623.5 1192.5C581.803 1192.5 541 1154.2 541 1112.5C541 1070.8 630.303 991 672 991C713.697 991 729 1056.3 729 1098Z" fill="#FFE6C9" fill-opacity="0.58"/>
<path d="M729 1725C729 1766.7 665.197 1819.5 623.5 1819.5C581.803 1819.5 541 1781.2 541 1739.5C541 1697.8 630.303 1618 672 1618C713.697 1618 729 1683.3 729 1725Z" fill="#FFE6C9" fill-opacity="0.58"/>
<path d="M523.5 372C523.5 413.697 447.197 465.5 405.5 465.5C363.803 465.5 320 428.697 320 387C320 345.303 388.303 249 430 249C471.697 249 523.5 330.303 523.5 372Z" fill="#FFE6C9" fill-opacity="0.58"/>
<path d="M523.5 999C523.5 1040.7 447.197 1092.5 405.5 1092.5C363.803 1092.5 320 1055.7 320 1014C320 972.303 388.303 876 430 876C471.697 876 523.5 957.303 523.5 999Z" fill="#FFE6C9" fill-opacity="0.58"/>
<path d="M523.5 1626C523.5 1667.7 447.197 1719.5 405.5 1719.5C363.803 1719.5 320 1682.7 320 1641C320 1599.3 388.303 1503 430 1503C471.697 1503 523.5 1584.3 523.5 1626Z" fill="#FFE6C9" fill-opacity="0.58"/>
</g>
<defs>
<clipPath id="clip0">
<rect width="759" height="1678" fill="white"/>
</clipPath>
</defs>
</svg>
